<svg xmlns="http://www.w3.org/2000/svg" viewBox="0 0 100 120" width="100" height="120">
  <!-- Background Shadow -->
  <ellipse cx="50" cy="112" rx="25" ry="6" fill="#d0d7de" />

  <!-- Body (Black) -->
  <ellipse cx="50" cy="65" rx="32" ry="42" fill="#1e293b" />

  <!-- Belly (White) -->
  <ellipse cx="50" cy="70" rx="22" ry="32" fill="#ffffff" />

  <!-- Left Wing -->
  <path d="M18 65 C10 65 8 80 14 90 C18 96 23 85 23 75 Z" fill="#1e293b" />

  <!-- Right Wing -->
  <path d="M82 65 C90 65 92 80 86 90 C82 96 77 85 77 75 Z" fill="#1e293b" />

  <!-- Left Foot -->
  <ellipse cx="38" cy="110" rx="10" ry="6" fill="#f59e0b" transform="rotate(-5 38 110)" />

  <!-- Right Foot -->
  <ellipse cx="62" cy="110" rx="10" ry="6" fill="#f59e0b" transform="rotate(5 62 110)" />

  <!-- Left Eye -->
  <circle cx="40" cy="40" r="4.5" fill="#1e293b" />
  <circle cx="38.5" cy="38.5" r="1.5" fill="#ffffff" />

  <!-- Right Eye -->
  <circle cx="60" cy="40" r="4.5" fill="#1e293b" />
  <circle cx="58.5" cy="38.5" r="1.5" fill="#ffffff" />

  <!-- Beak -->
  <path d="M44 46 Q50 56 56 46 Q50 44 44 46 Z" fill="#f59e0b" stroke="#f59e0b" stroke-linejoin="round" stroke-width="2" />

  <!-- Blush Cheeks -->
  <circle cx="32" cy="48" r="3" fill="#fca5a5" opacity="0.6" />
  <circle cx="68" cy="48" r="3" fill="#fca5a5" opacity="0.6" />
</svg>
